<svg id="visual" viewBox="0 0 900 600" width="900" height="600" xmlns="http://www.w3.org/2000/svg" xmlns:xlink="http://www.w3.org/1999/xlink" version="1.1"><path d="M465 600L489.7 580C514.3 560 563.7 520 572.7 480C581.7 440 550.3 400 522 360C493.7 320 468.3 280 494.8 240C521.3 200 599.7 160 606.2 120C612.7 80 547.3 40 514.7 20L482 0L900 0L900 20C900 40 900 80 900 120C900 160 900 200 900 240C900 280 900 320 900 360C900 400 900 440 900 480C900 520 900 560 900 580L900 600Z" fill="#3e37c5" stroke-linecap="round" stroke-linejoin="miter"></path></svg>